# xmcd
#
# Track frame offsets: 
#        150
#        17473
#        31565
#        52675
#        68834
#        88079
#        103214
#        120188
#        137505
#        151538
#        172967
#
# Disc length: 2577 seconds
#
# Revision: 0
# Processed by: cddbd v1.5.2PL0 Copyright (c) Steve Scherf et al.
# Submitted via: ExactAudioCopy v0.95b4
#
DISCID=6e0a0f0b
DTITLE=Lady Antebellum - Lady Antebellum
DYEAR=1900
DGENRE=Country
TTITLE0=Love Don't Live Here
TTITLE1=Lookin' For A Good Time
TTITLE2=All We'd Ever Need
TTITLE3=Long Gone
TTITLE4=I Run To You
TTITLE5=Love's Lookin' Good On You
TTITLE6=Home Is Where The Heart Is
TTITLE7=Things People Say
TTITLE8=Slow Down Sister
TTITLE9=Can't Take My Eyes Off You
TTITLE10=One Day You Will
EXTD=
EXTT0=
EXTT1=
EXTT2=
EXTT3=
EXTT4=
EXTT5=
EXTT6=
EXTT7=
EXTT8=
EXTT9=
EXTT10=
PLAYORDER=
